<svg xmlns="http://www.w3.org/2000/svg" style="display:none">
  <!-- SMOP Icon Sprite -->
  <symbol id="icon-mining" viewBox="0 0 24 24" fill="none" stroke="currentColor" stroke-width="2" stroke-linecap="round" stroke-linejoin="round">
    <path d="M12 2L2 7l10 5 10-5-10-5z"/>
    <path d="M2 17l10 5 10-5"/>
    <path d="M2 12l10 5 10-5"/>
  </symbol>
  <symbol id="icon-truck" viewBox="0 0 24 24" fill="none" stroke="currentColor" stroke-width="2" stroke-linecap="round" stroke-linejoin="round">
    <rect x="1" y="3" width="15" height="13" rx="1"/>
    <path d="M16 8h4l3 5v3h-7V8z"/>
    <circle cx="5.5" cy="18.5" r="2.5"/>
    <circle cx="18.5" cy="18.5" r="2.5"/>
  </symbol>
  <symbol id="icon-gauge" viewBox="0 0 24 24" fill="none" stroke="currentColor" stroke-width="2" stroke-linecap="round" stroke-linejoin="round">
    <path d="M12 2a10 10 0 0 1 10 10"/>
    <path d="M12 2a10 10 0 0 0-10 10"/>
    <path d="M12 12l4-8"/>
    <circle cx="12" cy="12" r="2"/>
  </symbol>
  <symbol id="icon-alert" viewBox="0 0 24 24" fill="none" stroke="currentColor" stroke-width="2" stroke-linecap="round" stroke-linejoin="round">
    <path d="M10.29 3.86L1.82 18a2 2 0 0 0 1.71 3h16.94a2 2 0 0 0 1.71-3L13.71 3.86a2 2 0 0 0-3.42 0z"/>
    <line x1="12" y1="9" x2="12" y2="13"/>
    <line x1="12" y1="17" x2="12.01" y2="17"/>
  </symbol>
  <symbol id="icon-cpu" viewBox="0 0 24 24" fill="none" stroke="currentColor" stroke-width="2" stroke-linecap="round" stroke-linejoin="round">
    <rect x="4" y="4" width="16" height="16" rx="2"/>
    <rect x="9" y="9" width="6" height="6"/>
    <line x1="9" y1="1" x2="9" y2="4"/>
    <line x1="15" y1="1" x2="15" y2="4"/>
    <line x1="9" y1="20" x2="9" y2="23"/>
    <line x1="15" y1="20" x2="15" y2="23"/>
    <line x1="20" y1="9" x2="23" y2="9"/>
    <line x1="20" y1="14" x2="23" y2="14"/>
    <line x1="1" y1="9" x2="4" y2="9"/>
    <line x1="1" y1="14" x2="4" y2="14"/>
  </symbol>
</svg>
